<?xml version="1.0" standalone="no"?>
<!DOCTYPE svg PUBLIC "-//W3C//DTD SVG 20010904//EN"
 "http://www.w3.org/TR/2001/REC-SVG-20010904/DTD/svg10.dtd">
<svg version="1.0" xmlns="http://www.w3.org/2000/svg"
 width="2040.000000pt" height="1344.000000pt" viewBox="0 0 2040.000000 1344.000000"
 preserveAspectRatio="xMidYMid meet">

<g transform="translate(0.000000,1344.000000) scale(0.100000,-0.100000)"
fill="#000000" stroke="none">
<path d="M5475 8674 c-16 -2 -77 -9 -135 -15 -134 -14 -315 -60 -381 -95 -89
-49 -89 -50 -89 -262 0 -209 -7 -191 90 -241 84 -44 234 -88 361 -107 145 -21
535 -15 671 10 165 30 326 92 397 151 l31 27 0 170 0 170 -31 29 c-66 62 -233
121 -420 149 -76 11 -440 22 -494 14z m400 -54 c217 -25 412 -90 459 -153 19
-25 19 -28 4 -44 -16 -15 -18 -15 -28 8 -25 56 -146 106 -338 141 -151 27
-472 29 -629 5 -225 -36 -336 -77 -363 -134 -17 -37 -34 -38 -38 -1 -5 38 54
81 152 112 81 25 270 62 356 69 102 8 341 6 425 -3z m-915 -390 c0 -91 -3
-110 -15 -110 -12 0 -15 19 -15 110 0 91 3 110 15 110 12 0 15 -19 15 -110z
m74 63 l36 -18 2 -77 c1 -43 2 -87 2 -98 1 -32 -19 -28 -22 5 -9 102 -32 127
-32 34 0 -52 -15 -65 -30 -25 -12 31 -12 196 0 196 5 0 25 -8 44 -17z m96
-135 c0 -83 -3 -109 -12 -106 -9 3 -14 38 -16 116 -2 97 -1 111 13 106 12 -5
15 -27 15 -116z m80 82 c0 -5 15 -6 34 -3 48 8 103 -4 127 -28 16 -16 19 -33
19 -115 0 -93 -1 -95 -22 -92 -22 3 -23 8 -26 93 -3 83 -10 104 -34 105 -5 0
-8 -40 -8 -88 0 -49 -3 -91 -6 -94 -3 -3 -14 -3 -26 0 -18 4 -20 11 -16 94 2
69 0 91 -12 98 -25 15 -30 1 -30 -91 0 -82 -1 -89 -20 -89 -19 0 -20 7 -20
108 0 60 3 111 6 115 8 7 34 -3 34 -13z m688 -241 c-23 -15 -28 3 -28 111 0
95 2 109 18 112 15 3 17 -8 20 -106 2 -79 -1 -112 -10 -117z m-420 109 c-3
-105 -4 -113 -23 -113 -19 0 -20 8 -23 113 l-3 112 27 0 26 0 -4 -112z m82 -3
c0 -108 -1 -115 -20 -115 -19 0 -20 7 -20 115 0 108 1 115 20 115 19 0 20 -7
20 -115z m270 0 l0 -115 -25 0 -25 0 0 115 0 115 25 0 25 0 0 -115z"/>
<path d="M5020 8250 c0 -11 5 -20 10 -20 6 0 10 9 10 20 0 11 -4 20 -10 20 -5
0 -10 -9 -10 -20z"/>
<path d="M12905 8286 c-129 -30 -254 -99 -313 -173 -43 -55 -80 -133 -99 -210
-23 -95 -23 -324 1 -413 52 -190 185 -320 382 -370 105 -27 260 -27 374 0 55
14 86 17 88 10 2 -6 44 -10 108 -10 l104 0 2 198 3 197 53 3 52 3 0 100 0 99
-285 0 -285 0 0 -100 0 -100 90 0 91 0 -3 -92 -3 -92 -30 -9 c-16 -5 -70 -9
-120 -9 -73 -1 -100 3 -143 22 -71 31 -137 104 -160 179 -23 77 -23 283 1 362
34 112 111 181 223 199 119 20 207 -23 239 -116 7 -22 16 -38 19 -36 3 1 58 2
121 2 l115 0 0 114 c0 63 -3 122 -6 131 -8 20 -99 66 -189 95 -89 29 -335 38
-430 16z"/>
<path d="M11258 8283 l-258 -3 0 -100 0 -100 60 0 60 0 0 -375 0 -375 -60 0
-60 0 0 -105 0 -105 344 0 c263 0 363 4 422 15 275 52 424 257 424 578 -1 246
-95 421 -274 506 -134 64 -196 70 -658 64z m461 -248 c62 -34 102 -83 128
-158 26 -75 25 -281 -1 -356 -22 -63 -74 -124 -129 -153 -52 -26 -156 -41
-234 -33 l-62 6 3 197 c2 108 4 273 5 366 l1 168 118 -4 c107 -3 121 -6 171
-33z"/>
<path d="M8070 8180 l0 -99 58 -3 57 -3 3 -372 2 -373 -60 0 -60 0 0 -106 0
-105 388 4 c416 4 418 4 530 61 58 29 114 93 138 157 10 26 17 76 18 124 1 68
-3 88 -24 130 -29 57 -96 108 -163 125 -74 19 -75 20 -9 55 83 44 91 52 118
110 46 98 27 232 -42 297 -37 35 -126 75 -194 88 -29 6 -211 10 -406 10 l-354
0 0 -100z m655 -126 c43 -20 69 -73 62 -126 -11 -79 -63 -109 -199 -116 l-98
-5 0 132 0 131 101 0 c71 0 111 -5 134 -16z m35 -455 c50 -28 70 -63 70 -119
0 -57 -23 -96 -73 -122 -34 -18 -63 -23 -154 -26 l-113 -4 0 144 c0 80 3 148
8 152 4 5 55 6 113 3 88 -4 114 -9 149 -28z"/>
<path d="M9410 8180 l0 -99 58 -3 57 -3 5 -330 c5 -310 7 -333 27 -384 77
-189 222 -265 503 -264 265 2 410 70 484 228 38 79 45 141 52 458 l6 297 59 0
59 0 0 100 0 100 -275 0 -275 0 0 -100 0 -100 55 0 55 0 0 -291 c0 -327 -4
-353 -61 -410 -82 -82 -274 -72 -337 18 -39 56 -42 87 -42 389 l0 294 55 0 55
0 0 100 0 100 -270 0 -270 0 0 -100z"/>
<path d="M13960 8175 l0 -105 55 0 55 0 0 -370 0 -369 -57 -3 -58 -3 0 -102 0
-103 473 0 472 0 0 180 0 180 -105 0 -105 0 0 -75 0 -75 -160 0 -160 0 0 140
0 140 180 0 180 0 0 100 0 100 -180 0 -180 0 0 130 0 131 158 -3 157 -3 3 -67
3 -68 104 0 105 0 0 175 0 175 -470 0 -470 0 0 -105z"/>
<path d="M15180 8085 l0 -195 110 0 110 0 0 90 0 90 90 0 90 0 0 -375 0 -375
-55 0 -55 0 0 -107 0 -106 203 6 c111 4 236 7 277 7 l75 0 1 100 1 99 -66 3
-66 3 0 48 c1 26 2 193 3 372 l2 325 90 0 90 0 0 -90 0 -90 110 0 110 0 0 195
0 195 -560 0 -560 0 0 -195z"/>
<path d="M6352 8040 c-75 -46 -221 -94 -357 -117 -145 -25 -591 -25 -725 0
-134 25 -259 68 -392 135 -5 2 -8 -66 -8 -151 l0 -156 28 -20 c86 -61 313
-126 502 -142 200 -18 543 0 690 36 112 28 244 86 298 132 l33 28 -3 146 -3
147 -63 -38z m-1394 -156 c3 -96 -3 -138 -18 -129 -16 10 -13 228 3 223 8 -3
13 -34 15 -94z m62 10 c0 -26 5 -44 11 -44 8 0 10 14 6 40 -4 29 -1 40 8 40
20 0 25 -24 25 -127 0 -71 -3 -94 -12 -91 -7 3 -14 24 -16 49 -2 24 -7 48 -12
52 -8 9 -23 -42 -18 -61 3 -10 -1 -12 -22 -12 -11 0 -15 192 -4 203 17 16 34
-8 34 -49z m104 10 c13 -5 16 -25 16 -111 0 -94 -2 -104 -17 -101 -16 3 -18
18 -21 111 -1 59 -1 107 2 107 2 0 11 -3 20 -6z m153 -37 c107 -10 116 -22
111 -147 -3 -67 -5 -75 -23 -75 -18 0 -20 8 -23 88 -1 48 -7 88 -12 89 -6 0
-15 1 -21 2 -8 1 -11 -26 -10 -86 1 -49 -1 -88 -6 -88 -28 1 -37 22 -38 92 -3
99 -2 98 -25 98 -18 0 -20 -7 -20 -85 0 -69 -3 -85 -15 -85 -11 0 -15 12 -16
43 0 23 -2 69 -3 102 -4 70 -1 78 22 66 9 -5 45 -11 79 -14z m187 -13 c13 -5
16 -25 16 -115 l0 -109 -25 0 -25 0 0 108 c0 120 2 128 34 116z m366 -115 l0
-109 -25 0 -25 0 0 109 c0 96 2 110 18 114 9 2 20 2 25 0 4 -2 7 -53 7 -114z
m80 11 c0 -102 -1 -110 -19 -110 -18 0 -20 9 -23 98 -4 113 -2 122 23 122 17
0 19 -9 19 -110z m-350 -10 c0 -103 -1 -110 -20 -110 -19 0 -20 7 -20 110 0
103 1 110 20 110 19 0 20 -7 20 -110z"/>
<path d="M6370 7690 c-159 -106 -465 -160 -830 -147 -281 11 -465 54 -662 155
-5 2 -8 -58 -8 -133 l0 -136 28 3 27 3 3 93 c2 68 6 92 15 89 8 -2 13 -35 15
-95 2 -73 6 -92 17 -92 12 0 15 16 15 80 l0 80 33 -13 c31 -13 32 -15 34 -82
2 -63 14 -92 34 -79 4 2 5 34 2 70 -5 61 -4 66 13 62 16 -3 20 -14 22 -63 2
-42 8 -64 19 -72 27 -21 36 -15 30 17 -4 17 -4 44 0 60 l6 30 66 -6 c130 -12
149 -27 153 -124 2 -43 7 -56 21 -58 15 -3 17 6 17 83 0 75 2 86 16 81 9 -3
20 -6 26 -6 6 0 9 -34 7 -89 -3 -86 6 -121 32 -121 5 0 9 47 9 105 0 98 1 105
20 105 19 0 20 -7 20 -113 0 -70 -4 -117 -11 -124 -6 -6 -8 -17 -4 -24 11 -16
305 -5 435 17 127 22 262 66 335 109 100 60 96 50 93 218 l-3 147 -45 -30z
m-542 -307 l3 -113 -26 0 -25 0 0 116 c0 114 0 115 23 112 21 -3 22 -7 25
-115z m82 8 c0 -84 -3 -110 -14 -114 -8 -3 -17 -3 -20 0 -3 4 -6 55 -6 115 0
101 1 108 20 108 19 0 20 -7 20 -109z"/>
<path d="M5010 7531 c0 -6 5 -13 10 -16 6 -3 10 1 10 9 0 9 -4 16 -10 16 -5 0
-10 -4 -10 -9z"/>
<path d="M5221 7468 c1 -13 -1 -31 -5 -40 -11 -23 1 -38 29 -38 22 0 23 3 19
38 -8 54 -12 62 -29 62 -11 0 -16 -8 -14 -22z"/>
<path d="M5015 7468 c-4 -10 -4 -26 0 -35 8 -17 8 -17 12 0 3 9 3 25 0 35 -4
16 -4 16 -12 0z"/>
<path d="M5307 7464 c-3 -3 -1 -17 6 -31 9 -19 8 -26 -4 -34 -12 -8 -11 -12 6
-24 29 -23 40 -13 38 35 -1 46 -25 74 -46 54z"/>
<path d="M4545 7404 c-302 -31 -519 -100 -559 -177 -15 -27 -17 -59 -14 -212
l3 -179 40 -27 c80 -53 254 -106 425 -130 139 -20 486 -17 628 4 142 22 267
58 358 102 109 53 105 46 107 243 2 169 2 170 -23 197 -62 67 -163 110 -355
150 -115 25 -155 28 -350 30 -121 2 -238 1 -260 -1z m490 -59 c169 -27 286
-65 362 -117 52 -35 69 -63 52 -84 -14 -18 -29 -18 -29 -1 0 17 -57 71 -95 90
-47 23 -157 55 -258 74 -139 26 -501 24 -657 -5 -229 -42 -311 -80 -334 -156
-5 -15 -9 -16 -21 -6 -58 48 59 130 252 175 188 45 548 60 728 30z m-967 -398
c2 -91 0 -107 -13 -107 -15 0 -17 13 -18 110 -1 85 3 112 16 108 8 -3 13 -37
15 -111z m72 68 l30 -16 0 -99 c0 -82 -3 -100 -15 -100 -12 0 -15 13 -15 60 0
33 -4 60 -10 60 -5 0 -10 -22 -10 -50 0 -49 -12 -66 -24 -34 -11 28 -7 194 4
194 6 0 24 -7 40 -15z m94 -33 c-1 -6 -2 -55 -2 -107 -2 -77 -5 -95 -17 -95
-12 0 -15 19 -15 111 0 100 2 110 18 107 9 -2 17 -9 16 -16z m70 -8 c13 -5 16
-23 16 -94 0 -97 -5 -120 -26 -120 -11 0 -14 23 -14 110 0 61 2 110 4 110 2 0
11 -3 20 -6z m149 -25 c34 -18 37 -28 37 -127 0 -91 -1 -93 -22 -90 -22 3 -23
7 -20 81 3 79 -6 107 -34 107 -11 0 -14 -20 -14 -90 0 -83 -1 -90 -20 -90 -19
0 -20 7 -20 90 0 72 -3 91 -16 98 -47 26 61 46 109 21z m127 -114 l0 -115 -25
0 -25 0 0 108 c0 60 3 112 7 115 3 4 15 7 25 7 16 0 18 -10 18 -115z m360 1
c0 -95 -3 -115 -16 -120 -9 -3 -20 -4 -25 0 -10 6 -13 217 -2 227 3 4 15 7 25
7 16 0 18 -10 18 -114z m90 -1 l0 -115 -25 0 -25 0 0 115 0 115 25 0 25 0 0
-115z m-362 -7 c-3 -105 -4 -113 -23 -113 -19 0 -20 8 -23 113 l-3 112 26 0
26 0 -3 -112z"/>
<path d="M4120 6971 c0 -17 5 -31 10 -31 6 0 10 11 10 24 0 14 -4 28 -10 31
-6 4 -10 -7 -10 -24z"/>
<path d="M6350 7318 c-132 -78 -347 -125 -617 -135 l-163 -6 0 -155 0 -155
188 6 c257 9 420 44 564 119 99 52 99 52 96 219 l-3 145 -65 -38z m-522 -291
l3 -107 -26 0 -25 0 0 103 c0 107 3 120 30 115 12 -3 16 -23 18 -111z m82 3
c0 -102 -1 -110 -19 -110 -18 0 -20 9 -23 100 -3 116 -3 120 23 120 18 0 19
-8 19 -110z"/>
<path d="M6360 6964 c-115 -73 -323 -120 -565 -130 -77 -3 -158 -7 -180 -10
l-40 -5 -3 -156 -2 -156 172 6 c196 7 311 24 446 69 88 29 192 86 220 120 9
12 12 53 10 156 l-3 141 -55 -35z m-445 -267 c9 -115 6 -131 -23 -135 -22 -3
-22 -2 -22 112 0 107 1 116 19 116 17 0 20 -11 26 -93z m-85 -27 l0 -110 -25
0 -25 0 0 110 0 110 25 0 25 0 0 -110z"/>
<path d="M5500 6774 c-106 -73 -347 -131 -593 -143 -382 -19 -683 29 -920 147
-4 2 -6 -67 -5 -155 l3 -158 64 -32 c70 -35 187 -74 296 -99 93 -21 523 -31
676 -15 181 19 365 73 456 134 46 31 48 35 56 92 4 33 6 103 5 156 l-3 97 -35
-24z m-1432 -135 c4 -68 -7 -159 -19 -159 -5 0 -9 49 -9 111 0 84 3 110 13
107 7 -3 13 -27 15 -59z m64 -11 c1 -37 2 -39 5 -10 3 19 10 32 19 32 11 0 14
-18 14 -84 0 -91 -5 -116 -24 -116 -8 0 -11 11 -8 30 2 16 1 42 -3 57 -7 26
-8 26 -15 8 -5 -11 -9 -32 -9 -47 -1 -16 -5 -28 -11 -28 -11 0 -14 157 -4 184
13 33 34 17 36 -26z m105 -96 c1 -101 -3 -117 -29 -107 -10 4 -12 29 -10 111
3 92 5 105 20 102 15 -3 17 -18 19 -106z m85 72 c4 -3 32 -7 63 -9 42 -3 63
-9 81 -26 22 -20 24 -31 24 -111 0 -81 -2 -88 -20 -88 -18 0 -20 7 -20 74 0
88 -5 106 -32 106 -19 0 -20 -6 -17 -85 4 -82 3 -85 -18 -85 -21 0 -22 5 -25
92 -3 79 -6 93 -20 96 -16 3 -18 -6 -18 -82 0 -79 -2 -86 -20 -86 -18 0 -20 7
-20 83 0 45 3 92 6 105 6 21 24 29 36 16z m703 -36 c3 -13 5 -63 3 -113 -3
-85 -4 -90 -25 -93 -23 -3 -23 -2 -23 106 0 60 3 112 7 115 13 14 33 6 38 -15z
m-445 -98 l0 -110 -25 0 -25 0 0 110 0 110 25 0 25 0 0 -110z m85 -5 c0 -103
-1 -110 -20 -110 -19 0 -20 8 -23 113 -3 113 -3 113 20 110 22 -3 23 -6 23
-113z m275 5 l0 -110 -26 0 -25 0 2 103 c1 56 4 105 6 110 2 4 13 7 24 7 18 0
19 -8 19 -110z"/>
<path d="M8243 6753 l-173 -3 0 -120 0 -120 70 0 70 0 -2 -437 -3 -438 -62 -3
-63 -3 0 -125 0 -126 423 4 c400 4 426 6 495 27 151 45 219 96 274 208 32 65
33 72 33 183 0 108 -2 118 -28 163 -34 58 -91 101 -163 124 -60 18 -67 28 -28
37 35 9 111 82 137 131 29 56 36 194 13 263 -20 60 -81 132 -140 167 -90 53
-179 67 -441 69 -132 2 -318 1 -412 -1z m584 -262 c56 -26 76 -66 71 -143 -8
-112 -63 -149 -230 -156 l-108 -5 0 162 0 161 113 0 c88 0 121 -4 154 -19z m7
-532 c21 -6 54 -25 74 -43 33 -31 36 -39 40 -97 5 -81 -20 -122 -93 -159 -42
-21 -67 -25 -172 -28 l-123 -4 0 177 0 178 118 -7 c64 -3 134 -11 156 -17z"/>
<path d="M9688 6753 l-68 -4 0 -119 0 -120 69 0 69 0 4 -357 c4 -297 8 -368
22 -418 54 -192 164 -297 366 -352 50 -13 104 -17 230 -17 178 0 258 13 358
59 65 30 153 112 192 180 59 103 63 135 68 538 l4 367 69 0 69 0 0 119 c0 99
-3 120 -16 125 -21 8 -393 8 -516 -1 l-98 -6 0 -119 0 -118 71 0 70 0 -4 -342
c-4 -373 -6 -394 -60 -455 -48 -55 -106 -77 -204 -76 -138 0 -216 57 -248 178
-12 47 -15 123 -15 377 l0 318 70 0 70 0 0 119 c0 115 -1 119 -22 125 -23 6
-427 5 -550 -1z"/>
<path d="M11778 6752 l-308 -2 0 -120 0 -119 73 -3 72 -3 3 -437 2 -438 -75 0
-75 0 0 -125 0 -125 373 0 c205 0 411 5 457 11 282 35 454 178 531 441 31 105
38 355 14 465 -51 236 -213 389 -460 437 -97 18 -207 22 -607 18z m519 -271
c69 -30 134 -101 163 -177 34 -90 40 -280 11 -393 -25 -99 -62 -164 -120 -208
-59 -46 -98 -55 -248 -60 l-133 -5 0 309 c0 169 3 366 7 437 l6 129 131 -5
c107 -4 140 -9 183 -27z"/>
<path d="M13283 6753 l-63 -4 0 -119 0 -120 70 0 70 0 0 -440 0 -439 -67 -3
-68 -3 -3 -123 -3 -123 438 3 c409 4 443 6 515 26 119 33 201 81 281 167 42
45 113 200 133 290 27 118 24 362 -4 468 -44 160 -138 279 -276 347 -136 68
-172 72 -591 75 -203 1 -398 0 -432 -2z m748 -267 c135 -49 209 -195 209 -410
-1 -156 -46 -293 -119 -359 -64 -57 -133 -77 -280 -80 l-126 -2 0 83 c0 45 2
242 3 438 l2 356 133 -5 c88 -3 147 -10 178 -21z"/>
<path d="M15008 6753 l-98 -4 0 -119 0 -120 68 -1 67 0 190 -317 190 -317 0
-130 0 -130 -67 -3 -68 -3 0 -121 c0 -120 0 -120 23 -114 12 3 158 6 325 6
l303 0 -3 118 -3 117 -70 0 -70 0 0 140 0 140 159 270 c228 388 193 345 276
345 l70 0 0 119 0 120 -47 3 c-27 2 -159 2 -295 0 l-248 -3 0 -114 0 -115 45
0 c25 0 45 -3 45 -6 0 -3 -41 -82 -91 -176 l-92 -169 -32 58 c-17 32 -59 107
-93 168 -34 60 -62 113 -62 117 0 5 20 8 45 8 l46 0 -3 118 -3 117 -205 1
c-113 0 -249 -2 -302 -3z"/>
<path d="M6385 6624 c-44 -34 -141 -76 -228 -99 -131 -34 -228 -46 -417 -54
l-165 -6 -3 -158 -3 -158 88 6 c142 10 129 -5 124 140 l-3 125 26 0 c25 0 26
-2 26 -55 0 -30 4 -55 9 -55 16 0 31 27 25 44 -11 28 4 66 26 66 16 0 20 -7
20 -36 0 -31 3 -35 18 -29 86 37 254 76 432 102 l55 8 3 88 c1 48 -1 87 -5 87
-4 0 -17 -8 -28 -16z"/>
<path d="M5475 6400 c-147 -87 -390 -130 -733 -130 -226 0 -361 15 -506 56
-76 21 -118 37 -243 91 -10 4 -13 -29 -13 -146 l0 -151 38 -25 c63 -42 200
-92 309 -114 350 -72 842 -38 1076 73 125 59 124 57 131 229 3 81 3 147 -1
147 -5 0 -30 -14 -58 -30z m-1405 -170 c0 -91 -3 -110 -15 -110 -12 0 -15 19
-15 110 0 91 3 110 15 110 12 0 15 -19 15 -110z m84 58 c17 -24 20 -84 10
-162 -9 -64 -30 -55 -26 11 2 29 -1 54 -7 57 -7 5 -11 -8 -11 -39 0 -25 -4
-44 -9 -41 -14 9 -21 75 -14 138 5 47 9 58 24 58 10 0 25 -10 33 -22z m86
-118 c0 -103 -1 -110 -20 -110 -19 0 -20 7 -20 110 0 103 1 110 20 110 19 0
20 -7 20 -110z m80 -25 c0 -98 -1 -105 -20 -105 -19 0 -20 7 -20 105 0 98 1
105 20 105 19 0 20 -7 20 -105z m145 71 c24 -16 25 -21 25 -111 l0 -95 -26 0
-27 0 5 78 c6 89 3 102 -23 102 -17 0 -19 -8 -19 -85 0 -78 -2 -85 -20 -85
-19 0 -20 7 -20 89 0 60 -4 91 -12 93 -7 3 -9 12 -5 22 6 15 15 18 52 14 25
-3 56 -13 70 -22z m559 -8 c3 -13 6 -65 6 -115 0 -93 0 -93 -25 -93 l-25 0 0
115 c0 106 1 115 19 115 11 0 21 -9 25 -22z m-444 -98 l0 -110 -25 0 -25 0 0
110 0 110 25 0 25 0 0 -110z m88 -8 c3 -113 3 -113 -20 -110 -22 3 -23 8 -26
102 -3 112 0 129 25 124 16 -3 18 -18 21 -116z m272 2 c0 -114 0 -115 -22
-112 -22 3 -23 7 -26 116 l-3 112 26 0 25 0 0 -116z"/>
<path d="M4120 6256 c0 -14 5 -28 10 -31 6 -4 10 7 10 24 0 17 -4 31 -10 31
-5 0 -10 -11 -10 -24z"/>
<path d="M6380 6420 c-221 -19 -395 -65 -490 -128 l-55 -37 -1 -203 -1 -203
26 -18 c67 -46 259 -106 426 -133 102 -16 487 -16 615 0 139 19 284 58 375
102 123 59 119 52 123 250 l3 168 -30 34 c-56 64 -204 120 -401 153 -111 19
-450 27 -590 15z m575 -64 c181 -33 301 -80 349 -137 25 -30 26 -33 10 -48
-13 -13 -17 -13 -21 -3 -10 26 -49 55 -118 87 -90 42 -169 61 -330 80 -365 42
-782 -17 -888 -127 -38 -39 -57 -42 -57 -8 0 26 65 77 128 100 59 22 220 56
332 70 115 14 489 5 595 -14z m-1035 -392 c0 -94 -7 -122 -25 -95 -8 15 7 211
16 205 5 -3 9 -52 9 -110z m78 65 c17 -6 32 -17 34 -26 7 -33 -7 -188 -17
-185 -9 2 -11 22 -15 147 -1 33 -4 44 -9 31 -4 -10 -6 -52 -5 -92 2 -74 -2
-84 -24 -62 -14 14 -17 198 -3 198 4 0 22 -5 39 -11z m102 -129 c0 -103 -1
-110 -20 -110 -19 0 -20 7 -20 110 0 103 1 110 20 110 19 0 20 -7 20 -110z
m90 -21 c0 -109 0 -110 -22 -107 -22 3 -23 6 -21 108 2 58 3 106 3 108 0 1 9
2 20 2 19 0 20 -7 20 -111z m135 86 c44 -18 55 -46 55 -140 0 -75 -6 -90 -34
-79 -12 5 -16 25 -18 92 -3 79 -5 87 -24 90 -19 3 -20 -1 -16 -57 6 -80 -3
-111 -30 -111 -20 0 -21 3 -16 85 5 76 4 85 -11 85 -25 0 -32 10 -20 31 12 23
65 25 114 4z m495 -110 c0 -107 -1 -115 -19 -115 -18 0 -20 9 -23 111 -2 61
-1 113 1 115 2 2 13 4 23 4 16 0 18 -10 18 -115z m90 6 c0 -90 -3 -110 -16
-115 -9 -3 -20 -4 -25 0 -5 3 -9 54 -9 115 l0 109 25 0 25 0 0 -109z m-450
-11 c0 -103 -1 -110 -20 -110 -19 0 -20 7 -20 110 0 103 1 110 20 110 19 0 20
-7 20 -110z m88 -7 l3 -113 -26 0 -25 0 0 116 c0 114 0 115 23 112 21 -3 22
-7 25 -115z"/>
<path d="M5623 6113 l-53 -4 0 -156 0 -156 104 5 c57 3 108 8 113 11 4 3 7 73
5 156 l-3 151 -57 -2 c-31 -1 -81 -3 -109 -5z"/>
<path d="M5515 6063 c-37 -29 -160 -80 -240 -101 -163 -42 -220 -47 -515 -47
-254 0 -298 3 -404 23 -138 26 -213 50 -307 98 l-69 34 0 -153 c0 -174 -3
-165 86 -210 62 -31 221 -79 324 -98 119 -22 628 -19 745 4 167 33 291 79 361
132 39 30 47 74 42 232 -3 100 -3 101 -23 86z m-1445 -162 c0 -43 -3 -92 -6
-110 -12 -60 -24 -19 -24 85 0 86 3 104 15 104 12 0 15 -15 15 -79z m60 39 c0
-5 9 -10 20 -10 19 0 20 -7 20 -100 0 -82 -3 -100 -15 -100 -12 0 -15 13 -15
55 0 30 -4 55 -10 55 -5 0 -10 -21 -10 -46 0 -32 -4 -44 -12 -42 -13 5 -24
157 -14 185 6 15 36 18 36 3z m110 -131 c0 -100 -2 -110 -17 -107 -16 3 -18
17 -19 111 -1 98 0 107 17 107 17 0 19 -9 19 -111z m122 71 c51 0 107 -19 118
-40 5 -10 10 -57 10 -104 0 -79 -2 -86 -20 -86 -18 0 -20 7 -20 74 0 87 -5
106 -31 106 -17 0 -19 -8 -19 -86 0 -76 -2 -85 -17 -82 -15 3 -19 18 -23 93
-4 75 -8 90 -22 93 -16 3 -18 -6 -18 -82 0 -79 -2 -86 -20 -86 -19 0 -20 7
-20 103 0 57 3 107 6 110 4 3 15 2 25 -3 10 -6 33 -10 51 -10z m666 -127 l3
-113 -26 0 -25 0 0 116 c0 114 0 115 23 112 21 -3 22 -7 25 -115z m-448 -4 c0
-109 0 -110 -22 -107 -22 3 -23 8 -26 111 l-3 107 26 0 25 0 0 -111z m88 -1
c-3 -105 -4 -113 -23 -113 -18 0 -20 8 -23 99 -3 114 0 126 28 126 20 0 21 -5
18 -112z m272 2 l0 -110 -26 0 c-20 0 -25 4 -20 16 3 9 6 58 6 110 0 87 1 94
20 94 19 0 20 -7 20 -110z"/>
<path d="M4132 5895 c0 -16 2 -22 5 -12 2 9 2 23 0 30 -3 6 -5 -1 -5 -18z"/>
<path d="M7322 5775 c-137 -84 -386 -129 -727 -129 -319 0 -500 34 -742 141
-10 4 -13 -29 -13 -145 l0 -151 28 -19 c69 -47 237 -102 399 -128 130 -22 447
-24 618 -5 200 22 398 86 477 153 26 23 27 25 30 171 2 95 0 147 -7 146 -5 0
-34 -15 -63 -34z m-1400 -169 c-2 -81 -1 -96 13 -96 12 0 15 15 15 83 0 46 3
86 6 90 3 3 21 -2 40 -10 l34 -17 0 -99 c0 -86 -2 -98 -17 -95 -12 2 -16 14
-17 45 -1 51 -16 71 -16 21 0 -46 -6 -50 -46 -31 l-34 17 0 99 c0 75 3 98 13
94 9 -3 11 -30 9 -101z m176 -64 c3 -107 2 -112 -18 -112 -19 0 -20 6 -20 116
0 105 2 115 18 112 15 -3 17 -18 20 -116z m92 62 c0 -16 16 -19 25 -4 9 15 70
12 110 -5 44 -18 55 -46 55 -141 0 -72 -1 -75 -22 -72 -21 3 -23 9 -28 88 -4
75 -7 85 -25 88 -19 3 -20 -2 -17 -68 4 -86 0 -100 -28 -93 -20 5 -21 11 -19
86 3 80 3 81 -24 88 l-27 7 0 -85 c0 -82 -1 -84 -22 -81 -13 2 -22 6 -20 11 1
4 2 52 2 106 0 94 1 99 20 94 11 -3 20 -12 20 -19z m718 -106 c-3 -96 -5 -113
-20 -116 -15 -3 -17 9 -20 96 -4 121 -2 132 23 132 19 0 19 -6 17 -112z m-448
-14 c0 -114 0 -115 -22 -112 -22 3 -23 6 -21 113 2 61 3 111 3 113 0 1 9 2 20
2 19 0 20 -7 20 -116z m88 -2 l3 -112 -26 0 -25 0 0 108 c0 60 3 112 7 116 4
4 14 5 23 4 12 -3 16 -24 18 -116z m275 5 c2 -105 2 -107 -20 -107 -22 0 -23
3 -23 111 0 106 1 110 21 107 19 -3 20 -11 22 -111z"/>
<path d="M5986 5635 c-3 -10 -2 -23 4 -29 15 -15 24 1 13 26 -9 20 -10 20 -17
3z"/>
<path d="M5590 5754 c-12 -4 -15 -29 -15 -150 l0 -145 90 6 c137 10 125 -5
125 156 l0 139 -92 -1 c-51 -1 -100 -3 -108 -5z"/>
<path d="M3980 5561 c0 -169 -5 -159 98 -210 76 -38 210 -75 357 -98 169 -27
517 -23 690 6 243 42 396 106 409 171 9 45 8 282 -1 278 -5 -2 -46 -22 -93
-44 -87 -43 -186 -72 -320 -96 -120 -21 -609 -18 -730 5 -139 26 -266 64 -342
102 l-68 34 0 -148z m85 49 c8 -13 8 -200 0 -208 -15 -16 -25 31 -25 121 0 88
8 115 25 87z m99 -55 c3 -13 3 -63 0 -110 -8 -100 -27 -111 -33 -19 l-4 59
-12 -55 -12 -55 -8 48 c-4 26 -4 76 0 111 l6 64 29 -9 c17 -6 31 -20 34 -34z
m67 -105 c-2 -58 -5 -107 -6 -109 -2 -1 -8 0 -14 4 -7 4 -11 48 -11 111 0 95
2 105 18 102 15 -3 17 -15 13 -108z m195 64 c51 -7 62 -28 66 -132 3 -88 2
-93 -17 -90 -18 3 -20 12 -23 83 -2 61 -7 83 -19 93 -9 6 -20 12 -25 12 -4 0
-8 -40 -8 -89 0 -84 -1 -89 -20 -84 -18 5 -20 14 -20 94 0 82 -2 89 -20 89
-17 0 -20 -7 -22 -57 -1 -32 -2 -71 -1 -86 1 -21 -3 -27 -15 -25 -14 3 -17 20
-20 106 l-3 102 58 -5 c32 -4 72 -8 89 -11z m154 -126 c0 -108 0 -109 -22
-106 -22 3 -23 7 -24 108 -1 58 0 108 2 112 2 3 13 4 24 1 18 -5 20 -14 20
-115z m448 5 l3 -113 -26 0 -25 0 0 116 c0 114 0 115 23 112 21 -3 22 -7 25
-115z m-360 -5 c-3 -105 -4 -113 -23 -113 -18 0 -20 8 -23 99 -3 114 0 126 28
126 20 0 21 -5 18 -112z m272 2 l0 -110 -26 0 c-26 0 -27 1 -20 46 3 26 6 75
6 110 0 57 2 64 20 64 19 0 20 -7 20 -110z"/>
<path d="M4120 5526 c0 -20 5 -36 10 -36 6 0 10 13 10 29 0 17 -4 33 -10 36
-6 4 -10 -8 -10 -29z"/>
<path d="M7332 5420 c-189 -124 -753 -173 -1142 -100 -120 23 -219 54 -298 94
l-53 27 3 -158 3 -158 60 -32 c151 -81 309 -112 620 -120 346 -8 595 27 758
108 109 54 107 49 107 221 0 81 -3 148 -7 147 -5 0 -27 -13 -51 -29z m-1403
-182 c-2 -74 -6 -98 -16 -98 -10 0 -13 25 -13 111 0 100 2 110 15 99 13 -11
16 -33 14 -112z m70 71 l31 -11 0 -105 c0 -79 -3 -104 -12 -101 -8 3 -14 26
-16 56 -4 64 -22 69 -22 7 0 -45 -12 -60 -24 -29 -8 21 -8 179 1 187 8 9 4 9
42 -4z m104 -31 c-2 -5 -3 -55 -3 -113 0 -97 -1 -105 -17 -96 -15 8 -17 26
-18 116 -1 102 0 106 19 103 12 -2 20 -6 19 -10z m85 -121 c3 -102 2 -107 -18
-107 -19 0 -20 6 -20 111 0 100 2 110 18 107 15 -3 17 -18 20 -111z m101 92
c76 -16 91 -41 91 -146 0 -82 -1 -84 -22 -81 -21 3 -23 9 -26 83 -2 61 -7 83
-19 93 -9 6 -19 12 -22 12 -3 0 -4 -41 -2 -91 3 -90 3 -91 -20 -87 -23 3 -24
5 -21 91 4 83 3 87 -17 87 -14 0 -21 6 -21 18 0 35 7 37 79 21z m175 -31 c3
-13 6 -65 6 -115 0 -93 0 -93 -25 -93 l-25 0 0 115 c0 106 1 115 19 115 11 0
21 -9 25 -22z m356 -93 c0 -108 -1 -115 -20 -115 -19 0 -20 7 -20 115 0 108 1
115 20 115 19 0 20 -7 20 -115z m90 5 c0 -101 -2 -110 -19 -110 -26 0 -31 18
-31 126 0 94 0 94 25 94 l25 0 0 -110z m-360 -10 c0 -103 -1 -110 -20 -110
-19 0 -20 7 -20 110 0 103 1 110 20 110 19 0 20 -7 20 -110z"/>
<path d="M5980 5261 c0 -11 5 -23 10 -26 6 -4 10 5 10 19 0 14 -4 26 -10 26
-5 0 -10 -9 -10 -19z"/>
</g>
</svg>
